<svg width="252" height="78" viewBox="0 0 252 78" fill="none" xmlns="http://www.w3.org/2000/svg">
<g clip-path="url(#clip0)">
<path d="M96.0001 36C95.1681 34.8202 94.0356 33.8845 92.7201 33.29C91.3478 32.6704 89.8803 32.2883 88.3801 32.16C86.8201 32.02 74.9201 32.26 74.0701 32.25C73.5585 31.2511 72.9524 30.3034 72.2601 29.42C71.5531 28.4621 70.6452 27.6703 69.6001 27.1C68.552 26.6573 67.4159 26.4622 66.2801 26.53C65.4011 26.547 64.541 26.7884 63.7814 27.2312C63.0219 27.674 62.388 28.3035 61.9401 29.06C61.6237 29.7166 61.4595 30.4361 61.4595 31.165C61.4595 31.8939 61.6237 32.6134 61.9401 33.27C62.313 33.9608 62.8658 34.5379 63.5401 34.94C64.4587 35.4805 65.4809 35.8213 66.5401 35.94C67.511 36.0714 68.4905 36.1283 69.4701 36.11C70.6201 36.11 71.8501 36.11 73.1701 36.04C74.4901 35.97 85.8301 35.5 88.0101 35.89C89.0462 36.0253 90.057 36.3117 91.0101 36.74C91.8035 37.0827 92.4931 37.6275 93.0101 38.32C93.3751 38.9063 93.6325 39.5532 93.7701 40.23C93.9626 41.0969 93.9932 41.992 93.8601 42.87C93.696 43.9187 93.358 44.9326 92.8601 45.87C92.2535 47.062 91.4215 48.1249 90.4101 49C89.6744 49.6972 88.8665 50.3141 88.0001 50.84C87.1779 51.3384 86.3187 51.773 85.4301 52.14C84.0505 52.7646 82.6225 53.2763 81.1601 53.67C79.9391 53.9996 78.7004 54.26 77.4501 54.45C76.5289 54.5911 75.601 54.6845 74.6701 54.73C73.9201 54.73 73.4301 54.8 73.2101 54.83C72.919 54.8375 72.633 54.9086 72.3722 55.0381C72.1114 55.1677 71.882 55.3526 71.7001 55.58C71.3956 55.9798 71.2528 56.4797 71.3001 56.98C71.3518 57.4812 71.566 57.9518 71.9101 58.32C72.1107 58.5295 72.3597 58.6865 72.6352 58.7772C72.9107 58.8678 73.2043 58.8894 73.4901 58.84C75.8223 58.6546 78.1404 58.3206 80.4301 57.84C82.6933 57.3655 84.8968 56.641 87.0001 55.68C88.0001 55.17 89.0001 54.62 90.0001 54.03C91.0544 53.3998 92.0575 52.6876 93.0001 51.9C94.4015 50.7744 95.5642 49.3806 96.4201 47.8C97.1496 46.4418 97.6209 44.9601 97.8101 43.43C97.9727 42.0655 97.8846 40.6828 97.5501 39.35C97.2632 38.1407 96.7361 37.0015 96.0001 36ZM67.9101 32.71C67.5601 32.71 67.2001 32.66 66.8301 32.63C66.2484 32.6233 65.6802 32.4535 65.1901 32.14C65.0281 31.9793 64.903 31.7851 64.8237 31.5712C64.7443 31.3572 64.7126 31.1284 64.7307 30.9009C64.7488 30.6734 64.8162 30.4526 64.9284 30.2538C65.0405 30.055 65.1947 29.8831 65.3801 29.75C65.7349 29.4997 66.156 29.3604 66.5901 29.35C67.0126 29.319 67.4369 29.3778 67.8351 29.5226C68.2332 29.6673 68.5962 29.8948 68.9001 30.19C69.558 30.9052 70.0528 31.7548 70.3501 32.68C70.3501 32.68 69.1001 32.75 67.9101 32.71Z" fill="#231815"/>
<path d="M217.7 43.28H197.32C197.055 43.2606 196.79 43.304 196.545 43.4065C196.3 43.509 196.082 43.6678 195.91 43.87C195.599 44.2395 195.429 44.707 195.429 45.19C195.429 45.673 195.599 46.1405 195.91 46.51C196.081 46.7135 196.299 46.8732 196.544 46.9758C196.789 47.0784 197.055 47.121 197.32 47.1H217.7C217.965 47.121 218.231 47.0784 218.477 46.9758C218.722 46.8732 218.939 46.7135 219.11 46.51C219.419 46.1396 219.589 45.6725 219.589 45.19C219.589 44.7075 219.419 44.2404 219.11 43.87C218.938 43.6678 218.721 43.509 218.476 43.4065C218.231 43.304 217.965 43.2606 217.7 43.28Z" fill="#231815"/>
<path d="M251.62 56.15C251.492 55.7001 251.199 55.3147 250.8 55.07C250.568 54.9369 250.308 54.8595 250.041 54.8438C249.774 54.8282 249.506 54.8748 249.26 54.98C248.577 55.1985 247.882 55.3821 247.18 55.53C246.33 55.73 245.38 55.9 244.35 56.04C243.29 56.1943 242.221 56.2911 241.15 56.33C240.081 56.3736 239.01 56.32 237.95 56.17C236.234 56.0716 234.609 55.3621 233.37 54.17C232.963 53.6921 232.663 53.1323 232.49 52.5285C232.318 51.9247 232.277 51.291 232.37 50.67C232.72 48.3027 233.879 46.1296 235.65 44.52C236.475 43.7378 237.376 43.0409 238.34 42.44C239.529 43.6324 240.972 44.5415 242.56 45.1C243.834 45.4615 245.168 45.5568 246.48 45.38C247.495 45.1937 248.468 44.8243 249.35 44.29C249.888 43.8591 250.332 43.3228 250.656 42.7141C250.979 42.1054 251.174 41.437 251.23 40.75C251.302 39.8992 251.118 39.0463 250.703 38.3001C250.288 37.5539 249.661 36.9482 248.9 36.56C247.875 36.093 246.757 35.8656 245.631 35.8951C244.504 35.9245 243.4 36.2101 242.4 36.73C241.346 37.2492 240.321 37.8268 239.33 38.46C238.834 37.0634 238.58 35.5922 238.58 34.11C238.465 32.4437 238.498 30.7704 238.68 29.11C238.81 27.87 238.94 26.78 239.08 25.86C239.139 25.604 239.135 25.3376 239.069 25.0834C239.003 24.8292 238.877 24.5947 238.7 24.4C238.385 24.0881 237.964 23.9061 237.52 23.89C237.039 23.8669 236.566 24.018 236.188 24.3156C235.81 24.6132 235.551 25.0373 235.46 25.51C235.374 25.8168 235.32 26.1319 235.3 26.45C235.3 26.92 235.19 27.45 235.14 28.07C234.91 30.1954 234.863 32.3366 235 34.47C235.105 36.3898 235.492 38.2836 236.15 40.09C235.148 40.7573 234.21 41.5173 233.35 42.36C231.085 44.3475 229.553 47.038 229 50C228.745 51.4834 228.851 53.0065 229.31 54.44C229.806 55.8524 230.742 57.0686 231.98 57.91C233.663 58.9476 235.569 59.5681 237.54 59.72C238.822 59.899 240.116 59.9726 241.41 59.94C242.644 59.9188 243.876 59.832 245.1 59.68C246.25 59.53 247.29 59.35 248.24 59.15C249.003 58.9929 249.755 58.7858 250.49 58.53C250.735 58.4569 250.959 58.3287 251.146 58.1554C251.334 57.9821 251.479 57.7681 251.57 57.53C251.736 57.0876 251.754 56.6033 251.62 56.15ZM243.54 39.33C244.226 38.9283 244.99 38.6793 245.78 38.6C246.88 38.51 248.24 39.07 248.4 40.24C248.62 41.78 247.11 42.39 246.31 42.55C245.392 42.7212 244.447 42.6939 243.54 42.47C243.064 42.374 242.612 42.184 242.21 41.9109C241.808 41.6379 241.465 41.2874 241.2 40.88C241.918 40.2755 242.703 39.7554 243.54 39.33Z" fill="#231815"/>
<path d="M142 54.56C140.07 53.87 137.19 52.83 135.53 52.21C135.53 51.65 135.18 43.21 135.21 42.4C135.141 42.0342 134.956 41.7003 134.682 41.4481C134.408 41.1959 134.06 41.0387 133.69 41C132.92 41 132.03 41.62 132.01 42.27C131.99 42.92 132.01 50.71 132.01 51.27C131.355 51.0657 130.687 50.9086 130.01 50.8C129.305 50.688 128.593 50.6311 127.88 50.63C127.175 50.6302 126.472 50.6972 125.78 50.83C125.117 50.952 124.475 51.1639 123.87 51.46C122.94 51.9316 122.204 52.7133 121.79 53.67C121.364 54.5661 121.204 55.5658 121.33 56.55C121.431 57.5345 121.841 58.4619 122.5 59.2C123.15 59.9093 123.954 60.4601 124.85 60.81C125.806 61.1806 126.824 61.3639 127.85 61.35C128.898 61.3505 129.937 61.1502 130.91 60.76C131.906 60.3747 132.804 59.7737 133.54 59C134.335 58.1262 134.899 57.0674 135.18 55.92C136.12 56.34 140.18 58.04 140.61 58.18C140.847 58.2996 141.109 58.3619 141.375 58.3619C141.641 58.3619 141.903 58.2996 142.14 58.18C142.56 57.9487 142.883 57.574 143.05 57.1242C143.217 56.6744 143.217 56.1796 143.05 55.73C142.977 55.4673 142.844 55.225 142.662 55.022C142.48 54.8191 142.253 54.661 142 54.56ZM130 57.56C129.435 57.8281 128.822 57.9812 128.197 58.0104C127.572 58.0396 126.948 57.9443 126.36 57.73C125.896 57.554 125.501 57.2354 125.23 56.82C124.983 56.4554 124.864 56.0195 124.89 55.58C124.934 55.1312 125.153 54.7179 125.5 54.43C126.014 54.0354 126.642 53.8179 127.29 53.81C127.959 53.8185 128.627 53.8686 129.29 53.96C130.224 54.0961 131.142 54.3273 132.03 54.65C131.937 55.2529 131.705 55.8259 131.353 56.3239C131 56.822 130.537 57.2314 130 57.52V57.56Z" fill="#231815"/>
<path d="M127.47 31.42C127.939 30.7522 128.259 29.9919 128.41 29.19C128.574 28.468 128.569 27.7178 128.396 26.998C128.222 26.2782 127.885 25.6081 127.41 25.04C126.858 24.4059 126.16 23.9161 125.376 23.6129C124.591 23.3097 123.745 23.2023 122.91 23.3C122.069 23.3576 121.257 23.6296 120.55 24.09C119.97 24.4731 119.471 24.9656 119.08 25.54C118.723 26.0715 118.434 26.6461 118.22 27.25C117.989 27.9025 117.805 28.5709 117.67 29.25C117.53 29.95 117.34 30.68 117.12 31.44C115.85 31.5 111.2 31.66 110.12 31.6C109.859 31.5753 109.596 31.6112 109.352 31.7049C109.107 31.7985 108.888 31.9475 108.71 32.14C108.415 32.4885 108.258 32.9334 108.27 33.39C108.268 33.8466 108.428 34.2893 108.72 34.64C108.877 34.8331 109.078 34.9862 109.306 35.087C109.533 35.1878 109.782 35.2334 110.03 35.22C110.48 35.22 114.35 35.17 116.03 35.11C115.4 36.88 111.94 49.17 111.73 49.72C111.609 49.9551 111.546 50.2156 111.546 50.48C111.546 50.7444 111.609 51.005 111.73 51.24C111.934 51.6814 112.289 52.0358 112.73 52.24C113.179 52.4062 113.672 52.4062 114.12 52.24C114.38 52.1498 114.614 51.9967 114.801 51.7944C114.988 51.592 115.121 51.3466 115.19 51.08C115.93 49.34 118.45 39.71 118.82 38.48C119.19 37.25 119.44 36.07 119.82 34.74C121.291 34.5213 122.742 34.1869 124.16 33.74C125.495 33.3653 126.663 32.547 127.47 31.42ZM123 30.89C122.608 30.9848 122.211 31.0582 121.81 31.11C121.462 31.1564 121.111 31.1797 120.76 31.18C120.93 30.18 121.08 29.32 121.31 28.39C121.63 27.12 123.49 25.68 124.81 26.83C126.13 27.98 125.13 29.99 124.19 30.44C123.813 30.6365 123.413 30.7876 123 30.89Z" fill="#231815"/>
<path d="M163.81 41.47C163.489 41.2765 163.111 41.1989 162.74 41.25C162.529 41.2825 162.33 41.3636 162.156 41.4869C161.982 41.6101 161.84 41.7721 161.74 41.96C161.583 42.1915 161.439 42.4319 161.31 42.68C161.05 43.14 160.72 43.75 160.31 44.53C160.275 44.591 160.223 44.6399 160.16 44.67C160.097 44.6835 160.032 44.6835 159.97 44.67C159.74 44.67 159.63 44.54 159.63 44.38C159.5 42.21 159.78 31.44 159.74 30.59C159.756 30.3245 159.711 30.0588 159.607 29.814C159.502 29.5693 159.343 29.3522 159.14 29.18C158.776 28.9233 158.334 28.7997 157.89 28.83C157.642 28.8245 157.395 28.8694 157.165 28.9621C156.935 29.0547 156.727 29.1932 156.552 29.369C156.377 29.5448 156.239 29.7544 156.148 29.9849C156.057 30.2154 156.013 30.4621 156.02 30.71C156.02 31.96 155.85 40.52 155.94 43.38C156.01 46.4415 156.284 49.495 156.76 52.52C156.85 52.9272 157.083 53.2884 157.417 53.5381C157.751 53.7877 158.164 53.909 158.58 53.88C158.954 53.8375 159.304 53.6763 159.58 53.42C159.908 53.1064 160.107 52.6824 160.14 52.23C160.353 51.0782 160.723 49.9611 161.24 48.91C161.874 47.5339 162.592 46.1981 163.39 44.91C163.91 44.01 164.17 43.54 164.17 43.51C164.305 43.3412 164.398 43.142 164.44 42.9295C164.482 42.7171 164.471 42.4976 164.41 42.29C164.306 41.9577 164.095 41.6693 163.81 41.47Z" fill="#231815"/>
<path d="M143.06 33.77C141.36 32.52 139.71 31.2 137.96 30.02C137.761 29.9041 137.541 29.8293 137.312 29.8001C137.084 29.7709 136.852 29.7878 136.63 29.85C136.303 29.9411 136.009 30.1266 135.787 30.3835C135.564 30.6403 135.422 30.957 135.378 31.2941C135.334 31.6312 135.391 31.9738 135.541 32.2789C135.69 32.5841 135.927 32.8384 136.22 33.01C137.97 34.19 139.61 35.51 141.31 36.76C141.716 36.9929 142.197 37.0575 142.65 36.94C143.073 36.8093 143.43 36.5234 143.65 36.14C143.766 35.941 143.841 35.7207 143.87 35.4922C143.899 35.2638 143.882 35.0318 143.82 34.81C143.689 34.389 143.421 34.0234 143.06 33.77Z" fill="#231815"/>
<path d="M184.34 25.36C183.339 25.5333 182.397 25.9583 181.605 26.595C180.813 27.2317 180.195 28.0592 179.81 29C179.429 30.1586 179.233 31.3702 179.23 32.59C179.23 32.59 171.41 32.69 170.23 32.67C169.989 32.6527 169.746 32.6885 169.52 32.7749C169.293 32.8613 169.089 32.9961 168.92 33.17C168.627 33.515 168.473 33.9574 168.49 34.41C168.46 34.8265 168.585 35.2394 168.84 35.57C169.016 35.7634 169.236 35.9117 169.482 36.0022C169.727 36.0927 169.991 36.1228 170.25 36.09H179.25C179.25 36.09 179.25 39.46 179.15 40.96C179.05 42.46 178.99 43.9 178.86 45.28C178.73 46.66 178.7 47.84 178.49 49C178.362 49.9339 178.137 50.8521 177.82 51.74C177.371 53.1584 176.597 54.4526 175.56 55.52C174.094 56.9102 172.358 57.9856 170.46 58.68C170.191 58.7469 169.939 58.8707 169.722 59.0433C169.504 59.2158 169.326 59.4329 169.2 59.68C169.004 60.1194 168.986 60.6176 169.15 61.07C169.316 61.526 169.634 61.9109 170.05 62.16C170.286 62.2956 170.55 62.3767 170.822 62.3975C171.093 62.4183 171.366 62.3781 171.62 62.28C174.121 61.5011 176.395 60.1287 178.25 58.28C179.622 56.7933 180.646 55.0207 181.25 53.09C181.632 52.0218 181.913 50.9204 182.09 49.8C182.35 48.46 182.42 47.1 182.56 45.56C182.7 44.02 182.82 42.45 182.9 40.81C182.98 39.17 183.02 37.59 183.02 36.04C183.088 36.0318 183.153 36.0078 183.21 35.97C184.671 35.9104 186.109 35.5815 187.45 35C188.595 34.3852 189.495 33.3971 190 32.2C190.333 31.3383 190.426 30.4024 190.269 29.4921C190.113 28.5817 189.712 27.7308 189.11 27.03C188.543 26.3427 187.799 25.8238 186.958 25.5294C186.117 25.235 185.212 25.1764 184.34 25.36ZM186.43 31.84C185.43 32.84 182.62 32.63 182.62 32.63C182.62 32.63 182.52 29.86 183.75 28.82C183.947 28.644 184.177 28.5086 184.426 28.4214C184.676 28.3342 184.94 28.297 185.203 28.3118C185.467 28.3267 185.725 28.3933 185.963 28.508C186.201 28.6226 186.414 28.783 186.59 28.98C186.766 29.177 186.902 29.4067 186.989 29.656C187.076 29.9054 187.113 30.1694 187.098 30.4331C187.083 30.6969 187.017 30.9551 186.902 31.193C186.788 31.431 186.627 31.644 186.43 31.82V31.84Z" fill="#231815"/>
<path d="M179.85 20.21C179.92 20.45 179.98 20.69 180.05 20.93C180.174 21.3718 180.467 21.7467 180.866 21.9733C181.265 22.2 181.737 22.2599 182.18 22.14C182.62 22.0095 182.992 21.7135 183.217 21.3143C183.443 20.9152 183.505 20.444 183.39 20L182 15L181.8 14.28C181.676 13.8382 181.383 13.4633 180.984 13.2367C180.585 13.01 180.113 12.9501 179.67 13.07C179.233 13.2005 178.863 13.4949 178.637 13.8919C178.412 14.2888 178.348 14.7574 178.46 15.2L179.85 20.21Z" fill="#231815"/>
<path d="M190.32 13.05C189.877 12.9355 189.407 12.9978 189.01 13.2236C188.612 13.4495 188.318 13.8211 188.19 14.26L186.84 19.26L186.65 19.98C186.575 20.2029 186.546 20.4388 186.565 20.6732C186.585 20.9076 186.651 21.1357 186.762 21.3434C186.872 21.5511 187.024 21.7342 187.207 21.8813C187.391 22.0285 187.602 22.1367 187.829 22.1994C188.056 22.262 188.293 22.2777 188.526 22.2456C188.759 22.2135 188.983 22.1342 189.184 22.0126C189.385 21.891 189.56 21.7296 189.697 21.5383C189.833 21.347 189.93 21.1298 189.98 20.9L191.33 15.9L191.53 15.18C191.644 14.7373 191.582 14.2675 191.356 13.8699C191.13 13.4724 190.759 13.1783 190.32 13.05Z" fill="#231815"/>
<path d="M42.98 10.03H21.21V68.37H42.98V10.03Z" fill="url(#paint0_linear)"/>
<path d="M1.47998 8.82L21.42 2.69V76.41L1.47998 69.5V8.82Z" fill="white"/>
<path d="M49.6799 1.39C48.75 0.503553 47.5146 0.00904655 46.2299 0.00904655C44.9452 0.00904655 43.7098 0.503553 42.7799 1.39C41.4699 2.76 41.3799 4.57 41.3799 6.39V7.87C37.4499 8.01 33.4899 7.87 29.5699 7.87H21.4199V10.87H41.4199V47.63C41.4199 54.39 41.2499 61.18 41.4199 67.94H21.4199V70.94H42.8599C43.0441 70.944 43.2272 70.9116 43.3988 70.8446C43.5704 70.7777 43.7271 70.6776 43.8599 70.55V70.5C43.9902 70.3686 44.0928 70.2124 44.1615 70.0406C44.2302 69.8688 44.2637 69.685 44.2599 69.5V10.61C46.4015 10.4811 48.4156 9.54908 49.8999 8C50.6998 7.07179 51.1212 5.87666 51.0804 4.65205C51.0397 3.42743 50.5397 2.26297 49.6799 1.39ZM44.3399 7.61V6.61C44.3399 5.54 44.1199 4.06 45.0299 3.31C45.3263 3.11696 45.6686 3.00599 46.0219 2.98841C46.3752 2.97082 46.7269 3.04725 47.041 3.2099C47.3551 3.37255 47.6205 3.6156 47.81 3.91427C47.9996 4.21293 48.1065 4.55652 48.1199 4.91C47.9999 6.54 46.1199 7.28 44.3399 7.61Z" fill="#231815"/>
<path d="M21.0002 1.26L1.09019 7.39C0.87593 7.45333 0.678019 7.56252 0.510187 7.71C0.345103 7.84295 0.213121 8.0124 0.124625 8.20501C0.0361284 8.39762 -0.0064678 8.60814 0.000187189 8.82V69.5C0.00614071 69.8233 0.115043 70.1363 0.311067 70.3935C0.507091 70.6506 0.780021 70.8386 1.09019 70.93L21.0002 77.84C21.2204 77.8977 21.4508 77.9045 21.674 77.8599C21.8972 77.8154 22.1073 77.7206 22.2884 77.5828C22.4696 77.4451 22.617 77.2678 22.7195 77.0646C22.8221 76.8614 22.877 76.6376 22.8802 76.41V2.69C22.877 2.46242 22.8221 2.23855 22.7195 2.03535C22.617 1.83215 22.4696 1.65494 22.2884 1.51715C22.1073 1.37936 21.8972 1.2846 21.674 1.24005C21.4508 1.1955 21.2204 1.20232 21.0002 1.26ZM19.9402 67.35V74.35L3.00019 68.45V9.91L20.0002 4.69V67.35H19.9402Z" fill="#231815"/>
<path d="M16 35.08C15.1851 34.7898 14.3013 34.7539 13.4656 34.9771C12.6299 35.2004 11.8816 35.6721 11.32 36.33C10.7227 37.025 10.3637 37.893 10.2956 38.8068C10.2274 39.7207 10.4537 40.6323 10.9412 41.4082C11.4287 42.1842 12.1518 42.7836 13.0047 43.1188C13.8576 43.4539 14.7954 43.5071 15.6807 43.2707C16.5661 43.0342 17.3524 42.5205 17.9246 41.8047C18.4968 41.0889 18.8247 40.2087 18.8604 39.2931C18.8961 38.3774 18.6377 37.4743 18.1229 36.7162C17.6082 35.9581 16.8642 35.3847 16 35.08ZM16.36 39.86C16.2897 40.0021 16.2095 40.1391 16.12 40.27C16.0714 40.3152 16.0278 40.3655 15.99 40.42L15.87 40.53C15.7776 40.6097 15.6729 40.6738 15.56 40.72L15.42 40.8H15.36C15.23 40.8 15.1 40.89 14.96 40.92H14.36L14 41L13.77 40.92H13.71L13.46 40.76L13.32 40.66L13 40.38C13.0051 40.3603 13.0051 40.3397 13 40.32L12.87 40.12L12.8 40V39.92C12.8 39.81 12.8 39.83 12.8 39.98C12.7359 39.8579 12.692 39.7262 12.67 39.59V39.43V39.36C12.66 39.2302 12.66 39.0998 12.67 38.97V38.91C12.6741 38.8668 12.6741 38.8232 12.67 38.78L12.79 38.38L12.91 38.17C12.9366 38.1116 12.9667 38.0548 13 38C13 38 13 37.95 13 37.94C13 37.93 13.2 37.75 13.23 37.72C13.26 37.69 13.43 37.51 13.3 37.65C13.17 37.79 13.3 37.65 13.38 37.65C13.46 37.65 13.71 37.39 13.8 37.41C13.89 37.43 13.52 37.51 13.75 37.41L13.98 37.33H14.15H14.29H14.75L15.22 37.47C15.29 37.47 15.39 37.55 15.46 37.6L15.6 37.68H15.66C15.76 37.78 15.85 37.88 15.95 37.97C16 38.03 16.04 38.1 16.09 38.17L16.2 38.38C16.2558 38.5372 16.3026 38.6974 16.34 38.86C16.345 38.9433 16.345 39.0267 16.34 39.11C16.3452 39.1966 16.3452 39.2834 16.34 39.37V39.46C16.34 39.56 16.27 39.67 16.26 39.72C16.25 39.77 16.34 39.81 16.32 39.86H16.36ZM16.48 39.46C16.4843 39.4134 16.4843 39.3666 16.48 39.32C16.48 39.32 16.46 39.4 16.44 39.46H16.48Z" fill="#231815"/>
</g>
<defs>
<linearGradient id="paint0_linear" x1="24.18" y1="61.77" x2="42.56" y2="9.35" gradientUnits="userSpaceOnUse">
<stop stop-color="#FF45B9"/>
<stop offset="1" stop-color="#FF5400"/>
</linearGradient>
<clipPath id="clip0">
<rect width="251.7" height="77.9" fill="white"/>
</clipPath>
</defs>
</svg>
